<svg width="16" height="18" viewBox="0 0 16 18" fill="none" xmlns="http://www.w3.org/2000/svg">
<path d="M9.15327 2.95573L10.3266 5.37679C10.4866 5.71381 10.9133 6.03708 11.2733 6.09898L13.3999 6.46351C14.7599 6.69737 15.0799 7.71531 14.0999 8.7195L12.4466 10.4252C12.1666 10.7141 12.0133 11.2712 12.0999 11.6702L12.5733 13.7817C12.9466 15.4531 12.0866 16.0996 10.6533 15.2261L8.65994 14.0087C8.29994 13.7886 7.70661 13.7886 7.33994 14.0087L5.34661 15.2261C3.91994 16.0996 3.05327 15.4462 3.42661 13.7817L3.89994 11.6702C3.98661 11.2712 3.83327 10.7141 3.55327 10.4252L1.89994 8.7195C0.926606 7.71531 1.23994 6.69737 2.59994 6.46351L4.72661 6.09898C5.07994 6.03708 5.50661 5.71381 5.66661 5.37679L6.83994 2.95573C7.47994 1.64203 8.51994 1.64203 9.15327 2.95573Z" fill="#FFCB80"/>
</svg>
